<?xml version="1.0" encoding="UTF-8"?>
<svg width="297px" height="89px" viewBox="0 0 297 89" version="1.1" xmlns="http://www.w3.org/2000/svg" xmlns:xlink="http://www.w3.org/1999/xlink">
    <!-- Generator: Sketch 59.1 (86144) - https://sketch.com -->
    <title>Artboard Copy 2</title>
    <desc>Created with Sketch.</desc>
    <g id="Artboard-Copy-2" stroke="none" stroke-width="1" fill="none" fill-rule="evenodd">
        <text id="ROSCO" font-family="SanFranciscoText-Semibold, San Francisco Text" font-size="73" font-weight="500" fill="#272727">
            <tspan x="31" y="60">ROSCO</tspan>
        </text>
        <path d="M33,80 C41.164081,75 50.164081,72.5 60,72.5 C74.7538784,72.5 74.6186874,80 90,80 C105.381313,80 106.892161,72.5 121.5,72.5 C136.107839,72.5 134.239129,80 148.5,80 C162.760871,80 163.753878,72.5 178.5,72.5 C193.246122,72.5 192.746122,80 207.5,80 C222.253878,80 222.880721,72.5 237.5,72.5 C247.246186,72.5 256.079519,75 264,80" id="Path" stroke="#1C9ACC" stroke-width="12" stroke-linecap="round" transform="translate(148.500000, 76.250000) scale(1, -1) translate(-148.500000, -76.250000) "></path>
    </g>
</svg>