<?xml version="1.0" encoding="UTF-8"?>
<svg width="405px" height="191px" viewBox="0 0 405 191" version="1.1" xmlns="http://www.w3.org/2000/svg" xmlns:xlink="http://www.w3.org/1999/xlink">
    <!-- Generator: Sketch 59.1 (86144) - https://sketch.com -->
    <title>Artboard</title>
    <desc>Created with Sketch.</desc>
    <g id="Artboard" stroke="none" stroke-width="1" fill="none" fill-rule="evenodd" stroke-linecap="round">
        <g id="Group-3" transform="translate(-59.000000, 21.000000)" stroke="#552B02" stroke-width="8">
            <path d="M0,44.5750168 C69.8014243,13.1048852 134.968091,-1.70172184 195.5,0.155195679 C286.297864,2.94057196 294.519648,52.4463755 362,55.6799721 C429.480352,58.9135687 456.5,22.3651063 548,11.260151 C609,3.85684744 648.166667,14.9618027 665.5,44.5750168 L665.5,209 L0,209 L0,55.6799721 L0,44.5750168 Z" id="Path-6" fill="#CD5E2E"></path>
            <path d="M0,108.914831 C44.5155858,78.0794113 87.6087445,62.4433648 129.279476,62.0066918 C191.785573,61.3516824 206,109 270,109 C334,109 340.05277,72.207145 413.5,72.207145 C486.94723,72.207145 473.5,109 556.5,109 C611.833333,109 648.166667,100.568304 665.5,83.7049122" id="Path-2-Copy"></path>
        </g>
    </g>
</svg>