<?xml version="1.0" encoding="UTF-8"?>
<svg width="802px" height="802px" viewBox="0 0 802 802" version="1.1" xmlns="http://www.w3.org/2000/svg" xmlns:xlink="http://www.w3.org/1999/xlink">
    <!-- Generator: Sketch 59.1 (86144) - https://sketch.com -->
    <title>roscoSVG Copy_WITH MARGINS OK Copy</title>
    <desc>Created with Sketch.</desc>
    <defs>
        <circle id="path-1" cx="125.5" cy="125.5" r="125.5"></circle>
    </defs>
    <g id="roscoSVG-Copy_WITH-MARGINS-OK-Copy" stroke="none" stroke-width="1" fill="none" fill-rule="evenodd">
        <g id="Group" transform="translate(18.000000, 16.000000)">
            <g id="ovals">
                <circle id="char-a" fill="#3D823D" cx="384.5" cy="34.5" r="34.5"></circle>
                <circle id="char-b" fill="#D2793A" cx="467.5" cy="41.5" r="34.5"></circle>
                <circle id="char-c" fill="#BC9A7E" cx="547.5" cy="72.5" r="34.5"></circle>
                <circle id="char-d" fill="#BC9A7E" cx="616.5" cy="119.5" r="34.5"></circle>
                <circle id="char-e" fill="#BC9A7E" cx="672.5" cy="183.5" r="34.5"></circle>
                <circle id="char-f" fill="#BC9A7E" cx="712.5" cy="259.5" r="34.5"></circle>
                <circle id="char-g" fill="#BC9A7E" cx="731.5" cy="341.5" r="34.5"></circle>
                <circle id="char-h" fill="#BC9A7E" cx="731.5" cy="426.5" r="34.5"></circle>
                <circle id="char-i" fill="#BC9A7E" cx="712.5" cy="509.5" r="34.5"></circle>
                <circle id="char-j" fill="#BC9A7E" cx="672.5" cy="585.5" r="34.5"></circle>
                <circle id="char-k" fill="#BC9A7E" cx="616.5" cy="647.5" r="34.5"></circle>
                <circle id="char-l" fill="#BC9A7E" cx="546.5" cy="695.5" r="34.5"></circle>
                <circle id="char-m" fill="#BC9A7E" cx="466.5" cy="725.5" r="34.5"></circle>
                <circle id="char-n" fill="#BC9A7E" cx="382.5" cy="735.5" r="34.5"></circle>
                <circle id="char-o" fill="#BC9A7E" cx="299.5" cy="725.5" r="34.5"></circle>
                <circle id="char-p" fill="#BC9A7E" cx="219.5" cy="695.5" r="34.5"></circle>
                <circle id="char-q" fill="#BC9A7E" cx="149.5" cy="649.5" r="34.5"></circle>
                <circle id="char-r" fill="#BC9A7E" cx="93.5" cy="585.5" r="34.5"></circle>
                <circle id="char-s" fill="#BC9A7E" cx="54.5" cy="509.5" r="34.5"></circle>
                <circle id="char-t" fill="#BC9A7E" cx="34.5" cy="426.5" r="34.5"></circle>
                <circle id="char-u" fill="#BC9A7E" cx="35.5" cy="341.5" r="34.5"></circle>
                <circle id="char-v" fill="#BC9A7E" cx="53.5" cy="259.5" r="34.5"></circle>
                <circle id="char-w" stroke="#3D823D" stroke-width="7" fill="#BC9A7E" cx="93.5" cy="183.5" r="38"></circle>
                <circle id="char-x" fill="#BC9A7E" cx="150.5" cy="119.5" r="34.5"></circle>
                <circle id="char-y" fill="#BC9A7E" cx="219.5" cy="69.5" r="34.5"></circle>
                <circle id="char-z" fill="#BC9A7E" cx="299.5" cy="41.5" r="34.5"></circle>
            </g>
            <g id="characters" transform="translate(20.000000, 0.000000)" fill="#FFFFFF" font-family="SanFranciscoText-Semibold, San Francisco Text" font-size="54" font-weight="500">
                <text id="A">
                    <tspan x="350" y="51">A</tspan>
                </text>
                <text id="B">
                    <tspan x="434" y="59">B</tspan>
                </text>
                <text id="C">
                    <tspan x="512" y="90">C</tspan>
                </text>
                <text id="D">
                    <tspan x="582" y="138">D</tspan>
                </text>
                <text id="E">
                    <tspan x="639" y="201">E</tspan>
                </text>
                <text id="F">
                    <tspan x="680" y="278">F</tspan>
                </text>
                <text id="G">
                    <tspan x="696" y="360">G</tspan>
                </text>
                <text id="B">
                    <tspan x="434" y="59">B</tspan>
                </text>
                <text id="C">
                    <tspan x="512" y="90">C</tspan>
                </text>
                <text id="D">
                    <tspan x="582" y="138">D</tspan>
                </text>
                <text id="E">
                    <tspan x="639" y="201">E</tspan>
                </text>
                <text id="F">
                    <tspan x="680" y="278">F</tspan>
                </text>
                <text id="G">
                    <tspan x="696" y="360">G</tspan>
                </text>
                <text id="H">
                    <tspan x="696" y="444">H</tspan>
                </text>
                <text id="I">
                    <tspan x="687" y="527">I</tspan>
                </text>
                <text id="J">
                    <tspan x="640" y="603">J</tspan>
                </text>
                <text id="K">
                    <tspan x="582" y="665">K</tspan>
                </text>
                <text id="L">
                    <tspan x="514" y="714">L</tspan>
                </text>
                <text id="M">
                    <tspan x="427" y="744">M</tspan>
                </text>
                <text id="N">
                    <tspan x="347" y="754">N</tspan>
                </text>
                <text id="O">
                    <tspan x="263" y="744">O</tspan>
                </text>
                <text id="P">
                    <tspan x="187" y="715">P</tspan>
                </text>
                <text id="Q">
                    <tspan x="112" y="667">Q</tspan>
                </text>
                <text id="R">
                    <tspan x="60" y="603">R</tspan>
                </text>
                <text id="S">
                    <tspan x="21" y="528">S</tspan>
                </text>
                <text id="T">
                    <tspan x="2" y="446">T</tspan>
                </text>
                <text id="U">
                    <tspan x="0" y="360">U</tspan>
                </text>
                <text id="V">
                    <tspan x="20" y="278">V</tspan>
                </text>
                <text id="W">
                    <tspan x="54" y="203">W</tspan>
                </text>
                <text id="X">
                    <tspan x="117" y="138">X</tspan>
                </text>
                <text id="Y">
                    <tspan x="187" y="90">Y</tspan>
                </text>
                <text id="Z">
                    <tspan x="267" y="58">Z</tspan>
                </text>
            </g>
        </g>
        <g id="logo-integrated" transform="translate(246.000000, 251.000000)">
            <g id="Path-2" transform="translate(49.000000, 46.000000)">
                <mask id="mask-2" fill="white">
                    <use xlink:href="#path-1"></use>
                </mask>
                <use id="Mask" fill="#CD5E2E" xlink:href="#path-1"></use>
                <path d="M-17.5890152,198.905303 C15.8709487,171.896751 48.2617508,157.965212 79.5833912,157.110686 C126.565852,155.828897 152.305966,186.750535 192.219793,194.064593 C218.829012,198.940632 244.602338,196.57227 269.539773,186.959508" stroke="#552B02" stroke-width="20" stroke-linecap="round" mask="url(#mask-2)"></path>
                <path d="M129.778409,162.104167 C155.388017,150.320357 179.398386,144.154062 201.809517,143.605284 C224.220647,143.056505 248.857374,148.031583 275.719697,158.530519" id="Path-3" stroke="#552B02" stroke-width="20" stroke-linecap="round" mask="url(#mask-2)"></path>
            </g>
            <polygon id="Path-4-Copy" fill="#14342F" points="106 46 175 115.091977 244 46 244 87.890411 197.003937 125.972603 197.003937 162.966732 175 185 152.996063 162.966732 152.996063 125.972603 106 87.890411"></polygon>
            <path d="M187.580603,69.8013699 L181.424138,78.3149368 L192.131034,87.6523973 L175,105.503425 L157.868966,87.1031349 L168.30819,72.2730506 L187.580603,69.8013699 Z M173.096552,77.8938356 C171.519684,77.8938356 170.241379,79.172584 170.241379,80.75 C170.241379,82.327416 171.519684,83.6061644 173.096552,83.6061644 C174.67342,83.6061644 175.951724,82.327416 175.951724,80.75 C175.951724,79.172584 174.67342,77.8938356 173.096552,77.8938356 Z" id="Combined-Shape-Copy" fill="#14342F"></path>
            <circle id="Oval" fill="#0A1A17" cx="23" cy="23" r="23"></circle>
            <circle id="Oval-Copy" fill="#0A1A17" cx="57.5" cy="57.5" r="11.5"></circle>
        </g>
        <g id="questions-area" transform="translate(123.000000, 123.000000)">
            <circle id="Oval" fill="#CA5523" cx="278.5" cy="278.5" r="278.5"></circle>
            <text id="Planeta-de-los-Atrei" font-family="SanFranciscoText-Light, San Francisco Text" font-size="43" font-weight="300" line-spacing="37" fill="#FFFFFF">
                <tspan x="134.23584" y="162.162598">Planeta de los </tspan>
                <tspan x="187.996338" y="199.162598">Atreides</tspan>
            </text>
        </g>
    </g>
</svg>