<?xml version="1.0" encoding="UTF-8"?>
<svg width="772px" height="772px" viewBox="0 0 772 772" version="1.1" xmlns="http://www.w3.org/2000/svg" xmlns:xlink="http://www.w3.org/1999/xlink">
    <!-- Generator: Sketch 59.1 (86144) - https://sketch.com -->
    <title>roscoSVG Copy</title>
    <desc>Created with Sketch.</desc>
    <g id="roscoSVG-Copy" stroke="none" stroke-width="1" fill="none" fill-rule="evenodd">
        <g id="ovals" transform="translate(2.000000, 1.000000)">
            <circle id="char-a" fill="#3D823D" cx="384.5" cy="34.5" r="34.5"></circle>
            <circle id="char-b" fill="#D2793A" cx="467.5" cy="41.5" r="34.5"></circle>
            <circle id="char-c" fill="#BC9A7E" cx="547.5" cy="72.5" r="34.5"></circle>
            <circle id="char-d" fill="#BC9A7E" cx="616.5" cy="119.5" r="34.5"></circle>
            <circle id="char-e" fill="#BC9A7E" cx="672.5" cy="183.5" r="34.5"></circle>
            <circle id="char-f" fill="#BC9A7E" cx="712.5" cy="259.5" r="34.5"></circle>
            <circle id="char-g" fill="#BC9A7E" cx="731.5" cy="341.5" r="34.5"></circle>
            <circle id="char-h" fill="#BC9A7E" cx="731.5" cy="426.5" r="34.5"></circle>
            <circle id="char-i" fill="#BC9A7E" cx="712.5" cy="509.5" r="34.5"></circle>
            <circle id="char-j" fill="#BC9A7E" cx="672.5" cy="585.5" r="34.5"></circle>
            <circle id="char-k" fill="#BC9A7E" cx="616.5" cy="647.5" r="34.5"></circle>
            <circle id="char-l" fill="#BC9A7E" cx="546.5" cy="695.5" r="34.5"></circle>
            <circle id="char-m" fill="#BC9A7E" cx="466.5" cy="725.5" r="34.5"></circle>
            <circle id="char-n" fill="#BC9A7E" cx="382.5" cy="735.5" r="34.5"></circle>
            <circle id="char-o" fill="#BC9A7E" cx="299.5" cy="725.5" r="34.5"></circle>
            <circle id="char-p" fill="#BC9A7E" cx="219.5" cy="695.5" r="34.5"></circle>
            <circle id="char-q" fill="#BC9A7E" cx="149.5" cy="649.5" r="34.5"></circle>
            <circle id="char-r" fill="#BC9A7E" cx="93.5" cy="585.5" r="34.5"></circle>
            <circle id="char-s" fill="#BC9A7E" cx="54.5" cy="509.5" r="34.5"></circle>
            <circle id="char-t" fill="#BC9A7E" cx="34.5" cy="426.5" r="34.5"></circle>
            <circle id="char-u" fill="#BC9A7E" cx="35.5" cy="341.5" r="34.5"></circle>
            <circle id="char-v" fill="#BC9A7E" cx="53.5" cy="259.5" r="34.5"></circle>
            <circle id="char-w" stroke="#3D823D" stroke-width="7" fill="#BC9A7E" cx="93.5" cy="183.5" r="38"></circle>
            <circle id="char-x" fill="#BC9A7E" cx="150.5" cy="119.5" r="34.5"></circle>
            <circle id="char-y" fill="#BC9A7E" cx="219.5" cy="69.5" r="34.5"></circle>
            <circle id="char-z" fill="#BC9A7E" cx="299.5" cy="41.5" r="34.5"></circle>
        </g>
        <g id="characters" transform="translate(19.000000, 1.000000)" fill="#FFFFFF" font-family="SanFranciscoText-Semibold, San Francisco Text" font-size="54" font-weight="500">
            <text id="A">
                <tspan x="350" y="51">A</tspan>
            </text>
            <text id="B">
                <tspan x="434" y="59">B</tspan>
            </text>
            <text id="C">
                <tspan x="512" y="90">C</tspan>
            </text>
            <text id="D">
                <tspan x="582" y="138">D</tspan>
            </text>
            <text id="E">
                <tspan x="639" y="201">E</tspan>
            </text>
            <text id="F">
                <tspan x="680" y="278">F</tspan>
            </text>
            <text id="G">
                <tspan x="696" y="360">G</tspan>
            </text>
            <text id="B">
                <tspan x="434" y="59">B</tspan>
            </text>
            <text id="C">
                <tspan x="512" y="90">C</tspan>
            </text>
            <text id="D">
                <tspan x="582" y="138">D</tspan>
            </text>
            <text id="E">
                <tspan x="639" y="201">E</tspan>
            </text>
            <text id="F">
                <tspan x="680" y="278">F</tspan>
            </text>
            <text id="G">
                <tspan x="696" y="360">G</tspan>
            </text>
            <text id="H">
                <tspan x="696" y="444">H</tspan>
            </text>
            <text id="I">
                <tspan x="687" y="527">I</tspan>
            </text>
            <text id="J">
                <tspan x="640" y="603">J</tspan>
            </text>
            <text id="K">
                <tspan x="582" y="665">K</tspan>
            </text>
            <text id="L">
                <tspan x="514" y="714">L</tspan>
            </text>
            <text id="M">
                <tspan x="427" y="744">M</tspan>
            </text>
            <text id="N">
                <tspan x="347" y="754">N</tspan>
            </text>
            <text id="O">
                <tspan x="263" y="744">O</tspan>
            </text>
            <text id="P">
                <tspan x="187" y="715">P</tspan>
            </text>
            <text id="Q">
                <tspan x="112" y="667">Q</tspan>
            </text>
            <text id="R">
                <tspan x="60" y="603">R</tspan>
            </text>
            <text id="S">
                <tspan x="21" y="528">S</tspan>
            </text>
            <text id="T">
                <tspan x="2" y="446">T</tspan>
            </text>
            <text id="U">
                <tspan x="0" y="360">U</tspan>
            </text>
            <text id="V">
                <tspan x="20" y="278">V</tspan>
            </text>
            <text id="W">
                <tspan x="54" y="203">W</tspan>
            </text>
            <text id="X">
                <tspan x="117" y="138">X</tspan>
            </text>
            <text id="Y">
                <tspan x="187" y="90">Y</tspan>
            </text>
            <text id="Z">
                <tspan x="267" y="58">Z</tspan>
            </text>
        </g>
        <g id="outlines" transform="translate(19.000000, 1.000000)" fill="#FFFFFF" fill-rule="nonzero">
            <path d="M357.59375,51 L360.678711,41.4287109 L373.071289,41.4287109 L376.129883,51 L382.958984,51 L370.698242,15.0087891 L363.447266,15.0087891 L351.160156,51 L357.59375,51 Z M367.033203,21.5742188 L371.700195,36.4453125 L362.049805,36.4453125 L366.743164,21.5742188 L367.033203,21.5742188 Z" id="A"></path>
            <path d="M438.666992,59 L453.037109,59 C460.182617,59 465.587891,55.4667969 465.587891,48.8486328 C465.587891,43.6542969 462.265625,40.5429688 457.625,40.0419922 L457.625,39.7519531 C461.026367,38.9082031 463.689453,36.3769531 463.689453,31.8681641 C463.689453,26.2519531 459.444336,23.0087891 453.22168,23.0087891 L438.666992,23.0087891 L438.666992,59 Z M444.995117,28.0712891 L451.850586,28.0712891 C455.041016,28.0712891 457.361328,29.6533203 457.361328,32.9755859 C457.361328,36.4296875 454.882812,38.0908203 449.952148,38.0908203 L444.995117,38.0908203 L444.995117,28.0712891 Z M444.995117,42.8369141 L452.325195,42.8369141 C456.438477,42.8369141 459.101562,44.7880859 459.101562,48.5322266 C459.101562,52.6181265 455.753671,53.8887539 450.848892,53.9361131 L444.995117,53.9375 L444.995117,42.8369141 Z" id="B"></path>
            <path d="M521.676758,69.8027344 L521.676758,74.390625 C521.676758,81.6416016 524.999023,85.0957031 530.114258,85.0957031 C535.124023,85.0957031 537.708008,81.8525391 537.708008,78.0556641 L543.87793,78.0556641 L543.87793,78.609375 C543.87793,84.6474609 539.131836,90.7119141 529.956055,90.7119141 C520.806641,90.7119141 515.216797,84.8320312 515.216797,74.390625 L515.216797,69.75 C515.216797,59.4404297 520.859375,53.296875 529.982422,53.296875 C538.868164,53.296875 543.87793,59.2558594 543.87793,65.8476562 L543.87793,66.4013672 L537.708008,66.4013672 C537.708008,62.6308594 535.044922,58.9394531 530.035156,58.9394531 C525.025391,58.9394531 521.676758,62.6044922 521.676758,69.8027344 Z" id="C"></path>
            <path d="M586.666992,102.008789 L586.666992,138 L599.323242,138 C611.030273,138 615.354492,130.40625 615.354492,119.938477 L615.348081,119.246045 C615.15745,109.045428 610.695613,102.008789 599.323242,102.008789 L586.666992,102.008789 Z M593.047852,107.466797 L598.584961,107.466797 C606.231445,107.466797 608.762695,112.6875 608.762695,120.043945 C608.762695,128.929688 605.255859,132.541992 598.584961,132.541992 L593.047852,132.541992 L593.047852,107.466797 Z" id="D"></path>
            <polygon id="E" points="666.369141 195.541992 666.369141 201 643.666992 201 643.666992 165.008789 666.369141 165.008789 666.369141 170.466797 649.995117 170.466797 649.995117 180.169922 665.419922 180.169922 665.419922 185.337891 649.995117 185.337891 649.995117 195.541992"></polygon>
            <polygon id="F" points="691.047852 278 684.666992 278 684.666992 242.008789 707.105469 242.008789 707.105469 247.519531 691.047852 247.519531 691.047852 258.013672 705.734375 258.013672 705.734375 263.418945 691.047852 263.418945"></polygon>
            <path d="M728.24707,335.425781 L721.998047,335.425781 C721.470703,331.12793 718.227539,328.886719 714.219727,328.886719 C709.368164,328.886719 705.650391,332.15625 705.650391,339.618164 L705.650391,344.206055 C705.650391,350.71875 708.287109,355.12207 714.219727,355.12207 C719.018555,355.12207 722.208984,352.142578 722.208984,348.319336 L722.208984,345.761719 L714.246094,345.761719 L714.246094,340.751953 L728.326172,340.751953 L728.326172,347.976562 C728.326172,353.408203 724.740234,360.711914 714.166992,360.711914 C703.962891,360.711914 699.216797,353.856445 699.216797,344.232422 L699.216797,339.56543 C699.216797,329.572266 704.991211,323.296875 714.325195,323.296875 C723.342773,323.296875 727.930664,329.176758 728.24707,335.425781 Z" id="G"></path>
            <path d="M438.666992,59 L453.037109,59 C460.182617,59 465.587891,55.4667969 465.587891,48.8486328 C465.587891,43.6542969 462.265625,40.5429688 457.625,40.0419922 L457.625,39.7519531 C461.026367,38.9082031 463.689453,36.3769531 463.689453,31.8681641 C463.689453,26.2519531 459.444336,23.0087891 453.22168,23.0087891 L438.666992,23.0087891 L438.666992,59 Z M444.995117,28.0712891 L451.850586,28.0712891 C455.041016,28.0712891 457.361328,29.6533203 457.361328,32.9755859 C457.361328,36.4296875 454.882812,38.0908203 449.952148,38.0908203 L444.995117,38.0908203 L444.995117,28.0712891 Z M444.995117,42.8369141 L452.325195,42.8369141 C456.438477,42.8369141 459.101562,44.7880859 459.101562,48.5322266 C459.101562,52.6181265 455.753671,53.8887539 450.848892,53.9361131 L444.995117,53.9375 L444.995117,42.8369141 Z" id="B"></path>
            <path d="M521.676758,69.8027344 L521.676758,74.390625 C521.676758,81.6416016 524.999023,85.0957031 530.114258,85.0957031 C535.124023,85.0957031 537.708008,81.8525391 537.708008,78.0556641 L543.87793,78.0556641 L543.87793,78.609375 C543.87793,84.6474609 539.131836,90.7119141 529.956055,90.7119141 C520.806641,90.7119141 515.216797,84.8320312 515.216797,74.390625 L515.216797,69.75 C515.216797,59.4404297 520.859375,53.296875 529.982422,53.296875 C538.868164,53.296875 543.87793,59.2558594 543.87793,65.8476562 L543.87793,66.4013672 L537.708008,66.4013672 C537.708008,62.6308594 535.044922,58.9394531 530.035156,58.9394531 C525.025391,58.9394531 521.676758,62.6044922 521.676758,69.8027344 Z" id="C"></path>
            <path d="M586.666992,102.008789 L586.666992,138 L599.323242,138 C611.030273,138 615.354492,130.40625 615.354492,119.938477 L615.348081,119.246045 C615.15745,109.045428 610.695613,102.008789 599.323242,102.008789 L586.666992,102.008789 Z M593.047852,107.466797 L598.584961,107.466797 C606.231445,107.466797 608.762695,112.6875 608.762695,120.043945 C608.762695,128.929688 605.255859,132.541992 598.584961,132.541992 L593.047852,132.541992 L593.047852,107.466797 Z" id="D"></path>
            <polygon id="E" points="666.369141 195.541992 666.369141 201 643.666992 201 643.666992 165.008789 666.369141 165.008789 666.369141 170.466797 649.995117 170.466797 649.995117 180.169922 665.419922 180.169922 665.419922 185.337891 649.995117 185.337891 649.995117 195.541992"></polygon>
            <polygon id="F" points="691.047852 278 684.666992 278 684.666992 242.008789 707.105469 242.008789 707.105469 247.519531 691.047852 247.519531 691.047852 258.013672 705.734375 258.013672 705.734375 263.418945 691.047852 263.418945"></polygon>
            <path d="M728.24707,335.425781 L721.998047,335.425781 C721.470703,331.12793 718.227539,328.886719 714.219727,328.886719 C709.368164,328.886719 705.650391,332.15625 705.650391,339.618164 L705.650391,344.206055 C705.650391,350.71875 708.287109,355.12207 714.219727,355.12207 C719.018555,355.12207 722.208984,352.142578 722.208984,348.319336 L722.208984,345.761719 L714.246094,345.761719 L714.246094,340.751953 L728.326172,340.751953 L728.326172,347.976562 C728.326172,353.408203 724.740234,360.711914 714.166992,360.711914 C703.962891,360.711914 699.216797,353.856445 699.216797,344.232422 L699.216797,339.56543 C699.216797,329.572266 704.991211,323.296875 714.325195,323.296875 C723.342773,323.296875 727.930664,329.176758 728.24707,335.425781 Z" id="G"></path>
            <polygon id="H" points="729.433594 444 723.052734 444 723.052734 428.337891 707.047852 428.337891 707.047852 444 700.666992 444 700.666992 408.008789 707.047852 408.008789 707.047852 422.774414 723.052734 422.774414 723.052734 408.008789 729.433594 408.008789"></polygon>
            <polygon id="I" points="698.047852 527 691.666992 527 691.666992 491.008789 698.047852 491.008789"></polygon>
            <path d="M641.344727,593.165039 L647.514648,593.165039 C647.620117,596.091797 649.782227,597.832031 652.498047,597.832031 C655.741211,597.832031 657.797852,596.06543 657.797852,591.978516 L657.797852,567.008789 L664.205078,567.008789 L664.205078,591.741211 C664.205078,599.835938 659.511719,603.711914 652.524414,603.711914 C645.299805,603.711914 641.344727,598.96582 641.344727,593.165039 Z" id="J"></path>
            <polygon id="K" points="614.668945 629.008789 601.643555 644.459961 615.275391 665 607.49707 665 596.950195 648.889648 593.047852 653.213867 593.047852 665 586.666992 665 586.666992 629.008789 593.047852 629.008789 593.047852 645.382812 593.337891 645.382812 607.549805 629.008789"></polygon>
            <polygon id="L" points="540.709961 708.331055 540.709961 714 518.666992 714 518.666992 678.008789 525.047852 678.008789 525.047852 708.331055"></polygon>
            <polygon id="M" points="437.467773 744 431.746094 744 431.746094 708.008789 438.179688 708.008789 448.911133 732.37207 449.148438 732.37207 459.853516 708.008789 466.287109 708.008789 466.287109 744 460.512695 744 460.512695 719.557617 460.196289 719.557617 451.205078 739.807617 446.801758 739.807617 437.78418 719.557617 437.467773 719.557617"></polygon>
            <polygon id="N" points="357.757812 754 351.666992 754 351.666992 718.008789 357.151367 718.008789 373.604492 742.820312 373.894531 742.820312 373.894531 718.008789 379.985352 718.008789 379.985352 754 374.500977 754 358.021484 729.083008 357.757812 729.083008"></polygon>
            <path d="M272.676758,723.723633 C272.676758,716.551758 276.341797,712.860352 281.325195,712.860352 C286.334961,712.860352 289.973633,716.551758 289.973633,723.723633 L289.973633,728.548828 C289.973633,735.720703 286.334961,739.148438 281.325195,739.148438 C276.341797,739.148438 272.676758,735.720703 272.676758,728.548828 L272.676758,723.723633 Z M266.216797,728.522461 L266.216797,723.776367 C266.216797,713.545898 272.017578,707.296875 281.351562,707.296875 C290.738281,707.296875 296.459961,713.572266 296.459961,723.776367 L296.459961,728.522461 C296.459961,738.700195 290.65918,744.711914 281.298828,744.711914 C271.938477,744.711914 266.216797,738.700195 266.216797,728.522461 Z" id="O"></path>
            <path d="M191.666992,679.008789 L191.666992,715 L198.047852,715 L198.047852,702.581055 L205.641602,702.581055 C213.103516,702.581055 217.638672,697.676758 217.638672,690.847656 C217.638672,684.097656 213.15625,679.008789 205.667969,679.008789 L191.666992,679.008789 Z M198.021484,684.361328 L204.613281,684.361328 C208.700195,684.361328 211.125977,686.681641 211.125977,690.847656 C211.125977,695.843999 208.075925,697.25653 202.92411,697.306243 L198.021484,697.307617 L198.021484,684.361328 Z" id="P"></path>
            <path d="M115.269531,651.364258 C115.269531,661.515625 121.175781,667.711914 130.37793,667.711914 C132.43457,667.711914 134.385742,667.342773 136.046875,666.709961 L138.894531,670.691406 L145.407227,670.691406 L140.713867,663.967773 C143.772461,661.172852 145.512695,656.875 145.512695,651.364258 L145.512695,646.697266 C145.512695,636.545898 139.580078,630.296875 130.37793,630.296875 C121.175781,630.296875 115.269531,636.519531 115.269531,646.697266 L115.269531,651.364258 Z M121.571289,646.670898 C121.571289,639.446289 125.341797,635.833984 130.37793,635.833984 C135.414062,635.833984 139.210938,639.446289 139.210938,646.670898 L139.210938,651.443359 C139.210938,654.686523 138.419922,657.165039 137.101562,658.878906 L134.833984,655.978516 L128.637695,655.978516 L132.961914,661.990234 C132.118164,662.333008 131.248047,662.491211 130.246094,662.491211 C125.262695,662.412109 121.571289,658.799805 121.571289,651.443359 L121.571289,646.670898 Z" id="Q"></path>
            <path d="M78.6416016,567.008789 L64.6669922,567.008789 L64.6669922,603 L70.96875,603 L70.96875,589.394531 L78.0615234,589.394531 L84.46875,603 L91.6142578,603 L84.3369141,588.339844 C87.2109375,587.258789 90.9287109,584.173828 90.9287109,578.241211 C90.9287109,572.044922 87.0263672,567.008789 78.6416016,567.008789 Z M70.96875,584.332031 L70.96875,572.282227 L77.7451172,572.282227 C81.6474609,572.282227 84.3632812,574.338867 84.3632812,578.425781 C84.3632812,582.249023 81.9111328,584.332031 77.5869141,584.332031 L70.96875,584.332031 Z" id="R"></path>
            <path d="M23.2675781,517.875 L29.4638672,517.875 C29.7275391,520.828125 32.390625,523.385742 37.3476562,523.385742 C41.9091797,523.385742 44.5722656,521.302734 44.5722656,518.138672 C44.5722656,515.501953 42.7265625,514.130859 38.9296875,513.234375 L33.1289062,511.863281 C28.4091797,510.755859 24.2167969,507.960938 24.2167969,502.02832 C24.2167969,495.067383 30.2285156,491.244141 37.3740234,491.244141 C44.5986328,491.244141 50.3466797,495.27832 50.4521484,501.84375 L44.3876953,501.84375 C44.1240234,498.996094 41.8300781,496.517578 37.2949219,496.517578 C33.2871094,496.517578 30.6240234,498.389648 30.6240234,501.527344 C30.6240234,503.698517 32.1582127,505.251065 35.2745345,506.017187 L41.3554688,507.433594 C46.734375,508.672852 50.9267578,511.230469 50.9267578,517.532227 C50.9267578,524.598633 45.2578125,528.711914 36.9257812,528.711914 C26.7480469,528.711914 23.3994141,522.832031 23.2675781,517.875 Z" id="S"></path>
            <polygon id="T" points="19.9560547 446 13.5751953 446 13.5751953 415.572266 3.16015625 415.572266 3.16015625 410.008789 30.3710938 410.008789 30.3710938 415.572266 19.9560547 415.572266"></polygon>
            <path d="M10.6259766,324.008789 L10.6259766,346.974609 C10.6259766,352.089844 13.7373047,355.042969 18.5097656,355.042969 C23.2822266,355.042969 26.4199219,352.063477 26.4199219,346.974609 L26.4199219,324.008789 L32.8007812,324.008789 L32.8007812,347.52832 C32.8007812,355.464844 27.1318359,360.711914 18.5097656,360.711914 C9.9140625,360.711914 4.24511719,355.412109 4.24511719,347.449219 L4.24511719,324.008789 L10.6259766,324.008789 Z" id="U"></path>
            <polygon id="V" points="40.6982422 278 33.2890625 278 20.9755859 242.008789 28.3320312 242.008789 36.9804688 270.722656 37.296875 270.722656 45.8398438 242.008789 52.9589844 242.008789"></polygon>
            <polygon id="W" points="70.3740234 203 64.546875 203 54.9228516 167.008789 61.9365234 167.008789 67.7109375 193.71875 68.0009766 193.71875 74.5664062 167.008789 80.3408203 167.008789 86.8798828 193.71875 87.2226562 193.71875 92.9707031 167.008789 99.984375 167.008789 90.3603516 203 84.4804688 203 77.5722656 177.186523 77.2822266 177.186523"></polygon>
            <polygon id="X" points="148.666992 102.008789 137.06543 120.09668 148.482422 138 141.073242 138 133.03125 124.948242 132.741211 124.948242 124.646484 138 117.65918 138 128.99707 119.859375 117.764648 102.008789 125.332031 102.008789 133.268555 115.21875 133.584961 115.21875 141.442383 102.008789"></polygon>
            <polygon id="Y" points="205.826172 90 199.445312 90 199.445312 75.9462891 187.395508 54.0087891 194.514648 54.0087891 202.556641 69.4072266 202.84668 69.4072266 210.915039 54.0087891 217.875977 54.0087891 205.826172 75.8144531"></polygon>
            <polygon id="Z" points="269.900391 58 269.900391 53.6494141 287.856445 27.8359375 287.856445 27.4931641 270.427734 27.4931641 270.427734 22.0087891 295.608398 22.0087891 295.608398 26.359375 277.757812 52.1728516 277.757812 52.515625 296.109375 52.515625 296.109375 58"></polygon>
        </g>
    </g>
</svg>