<?xml version="1.0" encoding="UTF-8"?>
<svg width="772px" height="772px" viewBox="0 0 772 772" version="1.1" xmlns="http://www.w3.org/2000/svg" xmlns:xlink="http://www.w3.org/1999/xlink">
    <!-- Generator: Sketch 59.1 (86144) - https://sketch.com -->
    <title>Artboard Copy 4</title>
    <desc>Created with Sketch.</desc>
    <g id="Artboard-Copy-4" stroke="none" stroke-width="1" fill="none" fill-rule="evenodd">
        <circle id="char-a" fill="#D8D8D8" cx="386.5" cy="35.5" r="34.5"></circle>
        <circle id="Oval-Copy-2" fill="#D8D8D8" cx="469.5" cy="42.5" r="34.5"></circle>
        <circle id="Oval-Copy-3" fill="#D8D8D8" cx="549.5" cy="73.5" r="34.5"></circle>
        <circle id="Oval-Copy-4" fill="#D8D8D8" cx="618.5" cy="120.5" r="34.5"></circle>
        <circle id="Oval-Copy-4" fill="#D8D8D8" cx="674.5" cy="184.5" r="34.5"></circle>
        <circle id="Oval-Copy-4" fill="#D8D8D8" cx="714.5" cy="260.5" r="34.5"></circle>
        <circle id="Oval-Copy-4" fill="#D8D8D8" cx="733.5" cy="342.5" r="34.5"></circle>
        <circle id="Oval-Copy-5" fill="#D8D8D8" cx="733.5" cy="427.5" r="34.5"></circle>
        <circle id="Oval-Copy-6" fill="#D8D8D8" cx="714.5" cy="510.5" r="34.5"></circle>
        <circle id="Oval-Copy-15" fill="#D8D8D8" cx="56.5" cy="510.5" r="34.5"></circle>
        <circle id="Oval-Copy-16" fill="#D8D8D8" cx="36.5" cy="427.5" r="34.5"></circle>
        <circle id="Oval-Copy-17" fill="#D8D8D8" cx="37.5" cy="342.5" r="34.5"></circle>
        <circle id="Oval-Copy-18" fill="#D8D8D8" cx="56.5" cy="260.5" r="34.5"></circle>
        <circle id="Oval-Copy-19" stroke="#979797" stroke-width="7" fill="#D8D8D8" cx="95.5" cy="184.5" r="38"></circle>
        <circle id="Oval-Copy-20" fill="#D8D8D8" cx="152.5" cy="120.5" r="34.5"></circle>
        <circle id="Oval-Copy-21" fill="#D8D8D8" cx="221.5" cy="70.5" r="34.5"></circle>
        <circle id="Oval-Copy-22" fill="#D8D8D8" cx="301.5" cy="42.5" r="34.5"></circle>
        <circle id="Oval-Copy-6" fill="#D8D8D8" cx="674.5" cy="586.5" r="34.5"></circle>
        <circle id="Oval-Copy-14" fill="#D8D8D8" cx="95.5" cy="586.5" r="34.5"></circle>
        <circle id="Oval-Copy-7" fill="#D8D8D8" cx="468.5" cy="726.5" r="34.5"></circle>
        <circle id="Oval-Copy-9" fill="#D8D8D8" cx="548.5" cy="696.5" r="34.5"></circle>
        <circle id="Oval-Copy-10" fill="#D8D8D8" cx="618.5" cy="648.5" r="34.5"></circle>
        <circle id="Oval-Copy-8" fill="#D8D8D8" cx="384.5" cy="736.5" r="34.5"></circle>
        <circle id="Oval-Copy-11" fill="#D8D8D8" cx="301.5" cy="726.5" r="34.5"></circle>
        <circle id="Oval-Copy-12" fill="#D8D8D8" cx="151.5" cy="650.5" r="34.5"></circle>
        <circle id="Oval-Copy-13" fill="#D8D8D8" cx="221.5" cy="696.5" r="34.5"></circle>
    </g>
</svg>